M48
;GenerationSoftware,Autodesk,EAGLE,9.6.2*%
;CreationDate,2023-04-24T17:59:02Z*%
FMAT,2
ICI,OFF
METRIC,TZ,000.000
T3C0.300
T2C1.016
T1C3.302
%
G90
M71
T1
X28448Y28448
X22860Y2540
X2540Y2540
X22860Y22860
X2540Y22860
X48768Y2540
X28448Y2540
X48768Y22860
X28448Y22860
X74676Y2540
X54356Y2540
X74676Y22860
X54356Y22860
X100584Y2540
X80264Y2540
X100584Y22860
X80264Y22860
X126492Y2540
X106172Y2540
X126492Y22860
X106172Y22860
X152400Y2540
X132080Y2540
X152400Y22860
X132080Y22860
X22860Y28448
X2540Y28448
X22860Y48768
X2540Y48768
X48768Y28448
X54356Y74676
X48768Y48768
X28448Y48768
X74676Y28448
X54356Y28448
X74676Y48768
X54356Y48768
X100584Y28448
X80264Y28448
X100584Y48768
X80264Y48768
X126492Y28448
X106172Y28448
X126492Y48768
X106172Y48768
X152400Y28448
X132080Y28448
X152400Y48768
X132080Y48768
X22860Y54356
X2540Y54356
X22860Y74676
X2540Y74676
X48768Y54356
X28448Y54356
X48768Y74676
X28448Y74676
X74676Y54356
X54356Y54356
X74676Y74676
X132080Y100584
X100584Y54356
X80264Y54356
X100584Y74676
X80264Y74676
X126492Y54356
X106172Y54356
X126492Y74676
X106172Y74676
X152400Y54356
X132080Y54356
X152400Y74676
X132080Y74676
X22860Y80264
X2540Y80264
X22860Y100584
X2540Y100584
X48768Y80264
X28448Y80264
X48768Y100584
X28448Y100584
X74676Y80264
X54356Y80264
X74676Y100584
X54356Y100584
X100584Y80264
X80264Y80264
X100584Y100584
X80264Y100584
X126492Y80264
X106172Y80264
X126492Y100584
X106172Y100584
X152400Y80264
X132080Y80264
X152400Y100584
T2
X137160Y86614
X7620Y24130
X7620Y21590
X7620Y1270
X7620Y3810
X7620Y6350
X7620Y8890
X33528Y24130
X33528Y21590
X33528Y1270
X33528Y3810
X33528Y6350
X33528Y8890
X59436Y24130
X59436Y21590
X59436Y1270
X59436Y3810
X59436Y6350
X59436Y8890
X85344Y24130
X85344Y21590
X85344Y1270
X85344Y3810
X85344Y6350
X85344Y8890
X111252Y24130
X111252Y21590
X111252Y1270
X111252Y3810
X111252Y6350
X111252Y8890
X137160Y24130
X137160Y21590
X137160Y1270
X137160Y3810
X137160Y6350
X137160Y8890
X7620Y50038
X7620Y47498
X7620Y27178
X7620Y29718
X7620Y32258
X7620Y34798
X33528Y50038
X33528Y47498
X33528Y27178
X33528Y29718
X33528Y32258
X33528Y34798
X59436Y50038
X59436Y47498
X59436Y27178
X59436Y29718
X59436Y32258
X59436Y34798
X85344Y50038
X85344Y47498
X85344Y27178
X85344Y29718
X85344Y32258
X85344Y34798
X111252Y50038
X111252Y47498
X111252Y27178
X111252Y29718
X111252Y32258
X111252Y34798
X137160Y50038
X137160Y47498
X137160Y27178
X137160Y29718
X137160Y32258
X137160Y34798
X7620Y75946
X7620Y73406
X7620Y53086
X7620Y55626
X7620Y58166
X7620Y60706
X33528Y75946
X33528Y73406
X33528Y53086
X33528Y55626
X33528Y58166
X33528Y60706
X59436Y75946
X59436Y73406
X59436Y53086
X59436Y55626
X59436Y58166
X59436Y60706
X85344Y75946
X85344Y73406
X85344Y53086
X85344Y55626
X85344Y58166
X85344Y60706
X111252Y75946
X111252Y73406
X111252Y53086
X111252Y55626
X111252Y58166
X111252Y60706
X137160Y75946
X137160Y73406
X137160Y53086
X137160Y55626
X137160Y58166
X137160Y60706
X7620Y101854
X7620Y99314
X7620Y78994
X7620Y81534
X7620Y84074
X7620Y86614
X33528Y101854
X33528Y99314
X33528Y78994
X33528Y81534
X33528Y84074
X33528Y86614
X59436Y101854
X59436Y99314
X59436Y78994
X59436Y81534
X59436Y84074
X59436Y86614
X85344Y101854
X85344Y99314
X85344Y78994
X85344Y81534
X85344Y84074
X85344Y86614
X111252Y101854
X111252Y99314
X111252Y78994
X111252Y81534
X111252Y84074
X111252Y86614
X137160Y101854
X137160Y99314
X137160Y78994
X137160Y81534
X137160Y84074
T3
X78613Y20701
X102235Y20701
X102235Y4699
X78613Y4699
X99441Y18415
X82804Y14056
X84074Y11430
X81534Y16764
X81534Y9144
X99314Y8636
X99314Y16256
X89916Y6350
X90424Y3810
X90932Y21590
X90932Y19050
X81534Y12700
X99314Y12700
X97282Y11811
X92168Y14605
X89916Y19050
X91313Y14605
X88900Y19050
X91313Y8255
X92837Y5080
X89662Y14605
X86614Y19177
X88773Y14605
X94615Y13970
X94107Y16764
X85344Y19177
X81280Y14097
X89535Y8890
X89281Y7620
X96139Y10287
X93980Y8382
X94107Y17780
X94107Y19050
X91694Y6604
X95885Y4572
X96774Y21082
X117856Y21590
X117856Y19050
X107442Y18034
X109982Y18034
X122745Y14986
X125222Y14986
X122682Y7366
X125222Y7366
X107442Y10414
X109982Y10414
X114363Y3556
X114046Y6223
X114681Y10541
X116332Y16510
X121475Y15621
X114935Y15621
X113538Y17526
X117856Y10795
X118491Y8382
X120015Y4445
X108712Y6350
X122047Y1016
X120396Y2096
X125222Y11303
X108966Y4064
X112903Y22225
X109474Y22225
X124079Y20320
X112014Y10795
X118364Y15621
X104521Y20701
X128143Y20701
X128143Y4699
X104521Y4699
X125349Y18415
X108712Y14056
X109982Y11430
X107442Y16764
X107442Y9144
X125222Y8636
X125222Y16256
X115824Y6350
X116332Y3810
X116840Y21590
X116840Y19050
X107442Y12700
X125222Y12700
X123190Y11811
X118076Y14605
X115824Y19050
X117221Y14605
X114808Y19050
X117221Y8255
X118745Y5080
X115570Y14605
X112522Y19177
X114681Y14605
X120523Y13970
X120015Y16764
X111252Y19177
X107188Y14097
X115443Y8890
X115189Y7620
X122047Y10287
X119888Y8382
X120015Y17780
X120015Y19050
X117602Y6604
X121793Y4572
X122682Y21082
X143764Y21590
X143764Y19050
X133350Y18034
X135890Y18034
X148654Y14986
X151130Y14986
X148590Y7366
X151130Y7366
X133350Y10414
X135890Y10414
X140272Y3556
X139954Y6223
X140589Y10541
X142240Y16510
X147384Y15621
X140843Y15621
X139446Y17526
X143764Y10795
X144399Y8382
X145923Y4445
X134620Y6350
X147955Y1016
X146304Y2096
X151130Y11303
X134874Y4064
X138811Y22225
X135382Y22225
X149987Y20320
X137922Y10795
X144272Y15621
X130429Y20701
X154051Y20701
X154051Y4699
X130429Y4699
X151257Y18415
X134620Y14056
X135890Y11430
X133350Y16764
X133350Y9144
X151130Y8636
X151130Y16256
X141732Y6350
X142240Y3810
X142748Y21590
X142748Y19050
X133350Y12700
X151130Y12700
X149098Y11811
X143984Y14605
X141732Y19050
X143129Y14605
X140716Y19050
X143129Y8255
X144653Y5080
X141478Y14605
X138430Y19177
X140589Y14605
X146431Y13970
X145923Y16764
X137160Y19177
X133096Y14097
X141351Y8890
X141097Y7620
X147955Y10287
X145796Y8382
X145923Y17780
X145923Y19050
X143510Y6604
X147701Y4572
X148590Y21082
X14224Y47498
X14224Y44958
X3810Y43942
X6350Y43942
X19114Y40894
X21590Y40894
X19050Y33274
X21590Y33274
X3810Y36322
X6350Y36322
X10732Y29464
X10414Y32131
X11049Y36449
X12700Y42418
X17844Y41529
X11303Y41529
X9906Y43434
X14224Y36703
X14859Y34290
X16383Y30353
X5080Y32258
X18415Y26924
X16764Y28003
X21590Y37211
X5334Y29972
X9271Y48133
X5842Y48133
X20447Y46228
X8382Y36703
X14732Y41529
X889Y46609
X24511Y46609
X24511Y30607
X889Y30607
X21717Y44323
X5080Y39965
X6350Y37338
X3810Y42672
X3810Y35052
X21590Y34544
X21590Y42164
X12192Y32258
X12700Y29718
X13208Y47498
X13208Y44958
X3810Y38608
X21590Y38608
X19558Y37719
X14444Y40513
X12192Y44958
X13589Y40513
X11176Y44958
X13589Y34163
X15113Y30988
X11938Y40513
X8890Y45085
X11049Y40513
X16891Y39878
X16383Y42672
X7620Y45085
X3556Y40005
X11811Y34798
X11557Y33528
X18415Y36195
X16256Y34290
X16383Y43688
X16383Y44958
X13970Y32512
X18161Y30480
X19050Y46990
X40132Y47498
X40132Y44958
X29718Y43942
X32258Y43942
X45021Y40894
X47498Y40894
X44958Y33274
X47498Y33274
X29718Y36322
X32258Y36322
X36640Y29464
X36322Y32131
X36957Y36449
X38608Y42418
X43751Y41529
X37211Y41529
X35814Y43434
X40132Y36703
X40767Y34290
X42291Y30353
X30988Y32258
X44323Y26924
X42672Y28003
X47498Y37211
X31242Y29972
X35179Y48133
X31750Y48133
X46355Y46228
X34290Y36703
X40640Y41529
X26797Y46609
X50419Y46609
X50419Y30607
X26797Y30607
X47625Y44323
X30988Y39965
X32258Y37338
X29718Y42672
X29718Y35052
X47498Y34544
X47498Y42164
X38100Y32258
X38608Y29718
X39116Y47498
X39116Y44958
X29718Y38608
X47498Y38608
X45466Y37719
X40352Y40513
X38100Y44958
X39497Y40513
X37084Y44958
X39497Y34163
X41021Y30988
X37846Y40513
X34798Y45085
X36957Y40513
X42799Y39878
X42291Y42672
X33528Y45085
X29464Y40005
X37719Y34798
X37465Y33528
X44323Y36195
X42164Y34290
X42291Y43688
X42291Y44958
X39878Y32512
X44069Y30480
X44958Y46990
X66040Y47498
X66040Y44958
X55626Y43942
X58166Y43942
X70930Y40894
X73406Y40894
X70866Y33274
X73406Y33274
X55626Y36322
X58166Y36322
X62547Y29464
X62230Y32131
X62865Y36449
X64516Y42418
X69660Y41529
X63119Y41529
X61722Y43434
X66040Y36703
X66675Y34290
X68199Y30353
X56896Y32258
X70231Y26924
X68580Y28003
X73406Y37211
X57150Y29972
X61087Y48133
X57658Y48133
X72263Y46228
X60198Y36703
X66548Y41529
X52705Y46609
X76327Y46609
X76327Y30607
X52705Y30607
X73533Y44323
X56896Y39965
X58166Y37338
X55626Y42672
X55626Y35052
X73406Y34544
X73406Y42164
X64008Y32258
X64516Y29718
X65024Y47498
X65024Y44958
X55626Y38608
X73406Y38608
X71374Y37719
X66260Y40513
X64008Y44958
X65405Y40513
X62992Y44958
X65405Y34163
X66929Y30988
X63754Y40513
X60706Y45085
X62865Y40513
X68707Y39878
X68199Y42672
X59436Y45085
X55372Y40005
X63627Y34798
X63373Y33528
X70231Y36195
X68072Y34290
X68199Y43688
X68199Y44958
X65786Y32512
X69977Y30480
X70866Y46990
X91948Y47498
X91948Y44958
X81534Y43942
X84074Y43942
X96837Y40894
X99314Y40894
X96774Y33274
X99314Y33274
X81534Y36322
X84074Y36322
X88455Y29464
X88138Y32131
X88773Y36449
X90424Y42418
X95567Y41529
X89027Y41529
X87630Y43434
X91948Y36703
X92583Y34290
X94107Y30353
X82804Y32258
X96139Y26924
X94488Y28003
X99314Y37211
X83058Y29972
X86995Y48133
X83566Y48133
X98171Y46228
X86106Y36703
X92456Y41529
X78613Y46609
X102235Y46609
X102235Y30607
X78613Y30607
X99441Y44323
X82804Y39965
X84074Y37338
X81534Y42672
X81534Y35052
X99314Y34544
X99314Y42164
X89916Y32258
X90424Y29718
X90932Y47498
X90932Y44958
X81534Y38608
X99314Y38608
X97282Y37719
X92168Y40513
X89916Y44958
X91313Y40513
X88900Y44958
X91313Y34163
X92837Y30988
X89662Y40513
X86614Y45085
X88773Y40513
X94615Y39878
X94107Y42672
X85344Y45085
X81280Y40005
X89535Y34798
X89281Y33528
X96139Y36195
X93980Y34290
X94107Y43688
X94107Y44958
X91694Y32512
X95885Y30480
X96774Y46990
X117856Y47498
X117856Y44958
X107442Y43942
X109982Y43942
X122745Y40894
X125222Y40894
X122682Y33274
X125222Y33274
X107442Y36322
X109982Y36322
X114363Y29464
X114046Y32131
X114681Y36449
X116332Y42418
X121475Y41529
X114935Y41529
X113538Y43434
X117856Y36703
X118491Y34290
X120015Y30353
X108712Y32258
X122047Y26924
X120396Y28003
X125222Y37211
X108966Y29972
X112903Y48133
X109474Y48133
X124079Y46228
X112014Y36703
X118364Y41529
X104521Y46609
X128143Y46609
X128143Y30607
X104521Y30607
X125349Y44323
X108712Y39965
X109982Y37338
X107442Y42672
X107442Y35052
X125222Y34544
X125222Y42164
X115824Y32258
X116332Y29718
X116840Y47498
X116840Y44958
X107442Y38608
X125222Y38608
X123190Y37719
X118076Y40513
X115824Y44958
X117221Y40513
X114808Y44958
X117221Y34163
X118745Y30988
X115570Y40513
X112522Y45085
X114681Y40513
X120523Y39878
X120015Y42672
X111252Y45085
X107188Y40005
X115443Y34798
X115189Y33528
X122047Y36195
X119888Y34290
X120015Y43688
X120015Y44958
X117602Y32512
X121793Y30480
X122682Y46990
X143764Y47498
X143764Y44958
X133350Y43942
X135890Y43942
X148654Y40894
X151130Y40894
X148590Y33274
X151130Y33274
X133350Y36322
X135890Y36322
X140272Y29464
X139954Y32131
X140589Y36449
X142240Y42418
X147384Y41529
X140843Y41529
X139446Y43434
X143764Y36703
X144399Y34290
X145923Y30353
X134620Y32258
X147955Y26924
X146304Y28003
X151130Y37211
X134874Y29972
X138811Y48133
X135382Y48133
X149987Y46228
X137922Y36703
X144272Y41529
X130429Y46609
X154051Y46609
X154051Y30607
X130429Y30607
X151257Y44323
X134620Y39965
X135890Y37338
X133350Y42672
X133350Y35052
X151130Y34544
X151130Y42164
X141732Y32258
X142240Y29718
X142748Y47498
X142748Y44958
X133350Y38608
X151130Y38608
X149098Y37719
X143984Y40513
X141732Y44958
X143129Y40513
X140716Y44958
X143129Y34163
X144653Y30988
X141478Y40513
X138430Y45085
X140589Y40513
X146431Y39878
X145923Y42672
X137160Y45085
X133096Y40005
X141351Y34798
X141097Y33528
X147955Y36195
X145796Y34290
X145923Y43688
X145923Y44958
X143510Y32512
X147701Y30480
X148590Y46990
X14224Y73406
X14224Y70866
X3810Y69850
X6350Y69850
X19114Y66802
X21590Y66802
X19050Y59182
X21590Y59182
X3810Y62230
X6350Y62230
X10732Y55372
X10414Y58039
X11049Y62357
X12700Y68326
X17844Y67437
X11303Y67437
X9906Y69342
X14224Y62611
X14859Y60198
X16383Y56261
X5080Y58166
X18415Y52832
X16764Y53911
X21590Y63119
X5334Y55880
X9271Y74041
X5842Y74041
X20447Y72136
X8382Y62611
X14732Y67437
X889Y72517
X24511Y72517
X24511Y56515
X889Y56515
X21717Y70231
X5080Y65873
X6350Y63246
X3810Y68580
X3810Y60960
X21590Y60452
X21590Y68072
X12192Y58166
X12700Y55626
X13208Y73406
X13208Y70866
X3810Y64516
X21590Y64516
X19558Y63627
X14444Y66421
X12192Y70866
X13589Y66421
X11176Y70866
X13589Y60071
X15113Y56896
X11938Y66421
X8890Y70993
X11049Y66421
X16891Y65786
X16383Y68580
X7620Y70993
X3556Y65913
X11811Y60706
X11557Y59436
X18415Y62103
X16256Y60198
X16383Y69596
X16383Y70866
X13970Y58420
X18161Y56388
X19050Y72898
X40132Y73406
X40132Y70866
X29718Y69850
X32258Y69850
X45021Y66802
X47498Y66802
X44958Y59182
X47498Y59182
X29718Y62230
X32258Y62230
X36640Y55372
X36322Y58039
X36957Y62357
X38608Y68326
X43751Y67437
X37211Y67437
X35814Y69342
X40132Y62611
X40767Y60198
X42291Y56261
X30988Y58166
X44323Y52832
X42672Y53911
X47498Y63119
X31242Y55880
X35179Y74041
X31750Y74041
X46355Y72136
X34290Y62611
X40640Y67437
X26797Y72517
X50419Y72517
X50419Y56515
X26797Y56515
X47625Y70231
X30988Y65873
X32258Y63246
X29718Y68580
X29718Y60960
X47498Y60452
X47498Y68072
X38100Y58166
X38608Y55626
X39116Y73406
X39116Y70866
X29718Y64516
X47498Y64516
X45466Y63627
X40352Y66421
X38100Y70866
X39497Y66421
X37084Y70866
X39497Y60071
X41021Y56896
X37846Y66421
X34798Y70993
X36957Y66421
X42799Y65786
X42291Y68580
X33528Y70993
X29464Y65913
X37719Y60706
X37465Y59436
X44323Y62103
X42164Y60198
X42291Y69596
X42291Y70866
X39878Y58420
X44069Y56388
X44958Y72898
X66040Y73406
X66040Y70866
X55626Y69850
X58166Y69850
X70930Y66802
X73406Y66802
X70866Y59182
X73406Y59182
X55626Y62230
X58166Y62230
X62547Y55372
X62230Y58039
X62865Y62357
X64516Y68326
X69660Y67437
X63119Y67437
X61722Y69342
X66040Y62611
X66675Y60198
X68199Y56261
X56896Y58166
X70231Y52832
X68580Y53911
X73406Y63119
X57150Y55880
X61087Y74041
X57658Y74041
X72263Y72136
X60198Y62611
X66548Y67437
X52705Y72517
X76327Y72517
X76327Y56515
X52705Y56515
X73533Y70231
X56896Y65873
X58166Y63246
X55626Y68580
X55626Y60960
X73406Y60452
X73406Y68072
X64008Y58166
X64516Y55626
X65024Y73406
X65024Y70866
X55626Y64516
X73406Y64516
X71374Y63627
X66260Y66421
X64008Y70866
X65405Y66421
X62992Y70866
X65405Y60071
X66929Y56896
X63754Y66421
X60706Y70993
X62865Y66421
X68707Y65786
X68199Y68580
X59436Y70993
X55372Y65913
X63627Y60706
X63373Y59436
X70231Y62103
X68072Y60198
X68199Y69596
X68199Y70866
X65786Y58420
X69977Y56388
X70866Y72898
X91948Y73406
X91948Y70866
X81534Y69850
X84074Y69850
X96837Y66802
X99314Y66802
X96774Y59182
X99314Y59182
X81534Y62230
X84074Y62230
X88455Y55372
X88138Y58039
X88773Y62357
X90424Y68326
X95567Y67437
X89027Y67437
X87630Y69342
X91948Y62611
X92583Y60198
X94107Y56261
X82804Y58166
X96139Y52832
X94488Y53911
X99314Y63119
X83058Y55880
X86995Y74041
X83566Y74041
X98171Y72136
X86106Y62611
X92456Y67437
X78613Y72517
X102235Y72517
X102235Y56515
X78613Y56515
X99441Y70231
X82804Y65873
X84074Y63246
X81534Y68580
X81534Y60960
X99314Y60452
X99314Y68072
X89916Y58166
X90424Y55626
X90932Y73406
X90932Y70866
X81534Y64516
X99314Y64516
X97282Y63627
X92168Y66421
X89916Y70866
X91313Y66421
X88900Y70866
X91313Y60071
X92837Y56896
X89662Y66421
X86614Y70993
X88773Y66421
X94615Y65786
X94107Y68580
X85344Y70993
X81280Y65913
X89535Y60706
X89281Y59436
X96139Y62103
X93980Y60198
X94107Y69596
X94107Y70866
X91694Y58420
X95885Y56388
X96774Y72898
X117856Y73406
X117856Y70866
X107442Y69850
X109982Y69850
X122745Y66802
X125222Y66802
X122682Y59182
X125222Y59182
X107442Y62230
X109982Y62230
X114363Y55372
X114046Y58039
X114681Y62357
X116332Y68326
X121475Y67437
X114935Y67437
X113538Y69342
X117856Y62611
X118491Y60198
X120015Y56261
X108712Y58166
X122047Y52832
X120396Y53911
X125222Y63119
X108966Y55880
X112903Y74041
X109474Y74041
X124079Y72136
X112014Y62611
X118364Y67437
X104521Y72517
X128143Y72517
X128143Y56515
X104521Y56515
X125349Y70231
X108712Y65873
X109982Y63246
X107442Y68580
X107442Y60960
X125222Y60452
X125222Y68072
X115824Y58166
X116332Y55626
X116840Y73406
X116840Y70866
X107442Y64516
X125222Y64516
X123190Y63627
X118076Y66421
X115824Y70866
X117221Y66421
X114808Y70866
X117221Y60071
X118745Y56896
X115570Y66421
X112522Y70993
X114681Y66421
X120523Y65786
X120015Y68580
X111252Y70993
X107188Y65913
X115443Y60706
X115189Y59436
X122047Y62103
X119888Y60198
X120015Y69596
X120015Y70866
X117602Y58420
X121793Y56388
X122682Y72898
X143764Y73406
X143764Y70866
X133350Y69850
X135890Y69850
X148654Y66802
X151130Y66802
X148590Y59182
X151130Y59182
X133350Y62230
X135890Y62230
X140272Y55372
X139954Y58039
X140589Y62357
X142240Y68326
X147384Y67437
X140843Y67437
X139446Y69342
X143764Y62611
X144399Y60198
X145923Y56261
X134620Y58166
X147955Y52832
X146304Y53911
X151130Y63119
X134874Y55880
X138811Y74041
X135382Y74041
X149987Y72136
X137922Y62611
X144272Y67437
X130429Y72517
X154051Y72517
X154051Y56515
X130429Y56515
X151257Y70231
X134620Y65873
X135890Y63246
X133350Y68580
X133350Y60960
X151130Y60452
X151130Y68072
X141732Y58166
X142240Y55626
X142748Y73406
X142748Y70866
X133350Y64516
X151130Y64516
X149098Y63627
X143984Y66421
X141732Y70866
X143129Y66421
X140716Y70866
X143129Y60071
X144653Y56896
X141478Y66421
X138430Y70993
X140589Y66421
X146431Y65786
X145923Y68580
X137160Y70993
X133096Y65913
X141351Y60706
X141097Y59436
X147955Y62103
X145796Y60198
X145923Y69596
X145923Y70866
X143510Y58420
X147701Y56388
X148590Y72898
X14224Y99314
X14224Y96774
X3810Y95758
X6350Y95758
X19114Y92710
X21590Y92710
X19050Y85090
X21590Y85090
X3810Y88138
X6350Y88138
X10732Y81280
X10414Y83947
X11049Y88265
X12700Y94234
X17844Y93345
X11303Y93345
X9906Y95250
X14224Y88519
X14859Y86106
X16383Y82169
X5080Y84074
X18415Y78740
X16764Y79820
X21590Y89027
X5334Y81788
X9271Y99949
X5842Y99949
X20447Y98044
X8382Y88519
X14732Y93345
X889Y98425
X24511Y98425
X24511Y82423
X889Y82423
X21717Y96139
X5080Y91780
X6350Y89154
X3810Y94488
X3810Y86868
X21590Y86360
X21590Y93980
X12192Y84074
X12700Y81534
X13208Y99314
X13208Y96774
X3810Y90424
X21590Y90424
X19558Y89535
X14444Y92329
X12192Y96774
X13589Y92329
X11176Y96774
X13589Y85979
X15113Y82804
X11938Y92329
X8890Y96901
X11049Y92329
X16891Y91694
X16383Y94488
X7620Y96901
X3556Y91821
X11811Y86614
X11557Y85344
X18415Y88011
X16256Y86106
X16383Y95504
X16383Y96774
X13970Y84328
X18161Y82296
X19050Y98806
X40132Y99314
X40132Y96774
X29718Y95758
X32258Y95758
X45021Y92710
X47498Y92710
X44958Y85090
X47498Y85090
X29718Y88138
X32258Y88138
X36640Y81280
X36322Y83947
X36957Y88265
X38608Y94234
X43751Y93345
X37211Y93345
X35814Y95250
X40132Y88519
X40767Y86106
X42291Y82169
X30988Y84074
X44323Y78740
X42672Y79820
X47498Y89027
X31242Y81788
X35179Y99949
X31750Y99949
X46355Y98044
X34290Y88519
X40640Y93345
X26797Y98425
X50419Y98425
X50419Y82423
X26797Y82423
X47625Y96139
X30988Y91780
X32258Y89154
X29718Y94488
X29718Y86868
X47498Y86360
X47498Y93980
X38100Y84074
X38608Y81534
X39116Y99314
X39116Y96774
X29718Y90424
X47498Y90424
X45466Y89535
X40352Y92329
X38100Y96774
X39497Y92329
X37084Y96774
X39497Y85979
X41021Y82804
X37846Y92329
X34798Y96901
X36957Y92329
X42799Y91694
X42291Y94488
X33528Y96901
X29464Y91821
X37719Y86614
X37465Y85344
X44323Y88011
X42164Y86106
X42291Y95504
X42291Y96774
X39878Y84328
X44069Y82296
X44958Y98806
X66040Y99314
X66040Y96774
X55626Y95758
X58166Y95758
X70930Y92710
X73406Y92710
X70866Y85090
X73406Y85090
X55626Y88138
X58166Y88138
X62547Y81280
X62230Y83947
X62865Y88265
X64516Y94234
X69660Y93345
X63119Y93345
X61722Y95250
X66040Y88519
X66675Y86106
X68199Y82169
X56896Y84074
X70231Y78740
X68580Y79820
X73406Y89027
X57150Y81788
X61087Y99949
X57658Y99949
X72263Y98044
X60198Y88519
X66548Y93345
X52705Y98425
X76327Y98425
X76327Y82423
X52705Y82423
X73533Y96139
X56896Y91780
X58166Y89154
X55626Y94488
X55626Y86868
X14224Y21590
X73406Y93980
X64008Y84074
X64516Y81534
X65024Y99314
X65024Y96774
X55626Y90424
X73406Y90424
X71374Y89535
X66260Y92329
X64008Y96774
X65405Y92329
X62992Y96774
X65405Y85979
X66929Y82804
X63754Y92329
X60706Y96901
X62865Y92329
X68707Y91694
X68199Y94488
X59436Y96901
X55372Y91821
X63627Y86614
X63373Y85344
X70231Y88011
X68072Y86106
X68199Y95504
X68199Y96774
X65786Y84328
X69977Y82296
X70866Y98806
X91948Y99314
X91948Y96774
X81534Y95758
X84074Y95758
X96837Y92710
X99314Y92710
X96774Y85090
X99314Y85090
X81534Y88138
X84074Y88138
X88455Y81280
X88138Y83947
X88773Y88265
X90424Y94234
X95567Y93345
X89027Y93345
X87630Y95250
X91948Y88519
X92583Y86106
X94107Y82169
X82804Y84074
X96139Y78740
X94488Y79820
X99314Y89027
X83058Y81788
X86995Y99949
X83566Y99949
X98171Y98044
X86106Y88519
X92456Y93345
X78613Y98425
X102235Y98425
X102235Y82423
X78613Y82423
X99441Y96139
X82804Y91780
X84074Y89154
X81534Y94488
X81534Y86868
X99314Y86360
X99314Y93980
X89916Y84074
X90424Y81534
X90932Y99314
X90932Y96774
X81534Y90424
X99314Y90424
X97282Y89535
X92168Y92329
X89916Y96774
X91313Y92329
X88900Y96774
X91313Y85979
X92837Y82804
X89662Y92329
X86614Y96901
X88773Y92329
X94615Y91694
X94107Y94488
X85344Y96901
X81280Y91821
X89535Y86614
X89281Y85344
X96139Y88011
X93980Y86106
X94107Y95504
X94107Y96774
X91694Y84328
X95885Y82296
X96774Y98806
X117856Y99314
X117856Y96774
X107442Y95758
X109982Y95758
X122745Y92710
X125222Y92710
X122682Y85090
X125222Y85090
X107442Y88138
X109982Y88138
X114363Y81280
X114046Y83947
X114681Y88265
X116332Y94234
X121475Y93345
X114935Y93345
X113538Y95250
X117856Y88519
X118491Y86106
X120015Y82169
X108712Y84074
X122047Y78740
X120396Y79820
X125222Y89027
X108966Y81788
X112903Y99949
X109474Y99949
X124079Y98044
X112014Y88519
X118364Y93345
X104521Y98425
X128143Y98425
X128143Y82423
X104521Y82423
X125349Y96139
X108712Y91780
X109982Y89154
X107442Y94488
X107442Y86868
X125222Y86360
X125222Y93980
X115824Y84074
X116332Y81534
X116840Y99314
X116840Y96774
X107442Y90424
X125222Y90424
X123190Y89535
X118076Y92329
X115824Y96774
X117221Y92329
X114808Y96774
X117221Y85979
X118745Y82804
X115570Y92329
X112522Y96901
X114681Y92329
X120523Y91694
X120015Y94488
X111252Y96901
X107188Y91821
X115443Y86614
X115189Y85344
X122047Y88011
X119888Y86106
X120015Y95504
X120015Y96774
X117602Y84328
X121793Y82296
X122682Y98806
X143764Y99314
X143764Y96774
X133350Y95758
X135890Y95758
X148654Y92710
X151130Y92710
X148590Y85090
X151130Y85090
X133350Y88138
X135890Y88138
X140272Y81280
X139954Y83947
X140589Y88265
X142240Y94234
X147384Y93345
X140843Y93345
X139446Y95250
X143764Y88519
X144399Y86106
X145923Y82169
X134620Y84074
X147955Y78740
X146304Y79820
X151130Y89027
X134874Y81788
X138811Y99949
X135382Y99949
X149987Y98044
X137922Y88519
X144272Y93345
X130429Y98425
X154051Y98425
X154051Y82423
X130429Y82423
X151257Y96139
X134620Y91780
X135890Y89154
X133350Y94488
X133350Y86868
X151130Y86360
X151130Y93980
X141732Y84074
X142240Y81534
X142748Y99314
X142748Y96774
X133350Y90424
X151130Y90424
X149098Y89535
X143984Y92329
X141732Y96774
X143129Y92329
X140716Y96774
X143129Y85979
X144653Y82804
X141478Y92329
X138430Y96901
X140589Y92329
X146431Y91694
X145923Y94488
X137160Y96901
X133096Y91821
X141351Y86614
X141097Y85344
X147955Y88011
X145796Y86106
X145923Y95504
X145923Y96774
X143510Y84328
X147701Y82296
X73406Y86360
X14224Y19050
X3810Y18034
X6350Y18034
X19114Y14986
X21590Y14986
X19050Y7366
X21590Y7366
X3810Y10414
X6350Y10414
X10732Y3556
X10414Y6223
X11049Y10541
X12700Y16510
X17844Y15621
X11303Y15621
X9906Y17526
X14224Y10795
X14859Y8382
X16383Y4445
X5080Y6350
X18415Y1016
X16764Y2096
X21590Y11303
X5334Y4064
X9271Y22225
X5842Y22225
X20447Y20320
X8382Y10795
X14732Y15621
X889Y20701
X24511Y20701
X24511Y4699
X889Y4699
X21717Y18415
X5080Y14056
X6350Y11430
X3810Y16764
X3810Y9144
X21590Y8636
X21590Y16256
X12192Y6350
X12700Y3810
X13208Y21590
X13208Y19050
X3810Y12700
X21590Y12700
X19558Y11811
X14444Y14605
X12192Y19050
X13589Y14605
X11176Y19050
X13589Y8255
X15113Y5080
X11938Y14605
X8890Y19177
X11049Y14605
X16891Y13970
X16383Y16764
X7620Y19177
X3556Y14097
X11811Y8890
X11557Y7620
X18415Y10287
X16256Y8382
X16383Y17780
X16383Y19050
X13970Y6604
X18161Y4572
X19050Y21082
X40132Y21590
X40132Y19050
X29718Y18034
X32258Y18034
X45021Y14986
X47498Y14986
X44958Y7366
X47498Y7366
X29718Y10414
X32258Y10414
X36640Y3556
X36322Y6223
X36957Y10541
X38608Y16510
X43751Y15621
X37211Y15621
X35814Y17526
X40132Y10795
X40767Y8382
X42291Y4445
X30988Y6350
X44323Y1016
X42672Y2096
X47498Y11303
X31242Y4064
X35179Y22225
X31750Y22225
X46355Y20320
X34290Y10795
X40640Y15621
X26797Y20701
X50419Y20701
X50419Y4699
X26797Y4699
X47625Y18415
X30988Y14056
X32258Y11430
X29718Y16764
X29718Y9144
X47498Y8636
X47498Y16256
X38100Y6350
X38608Y3810
X39116Y21590
X39116Y19050
X29718Y12700
X47498Y12700
X45466Y11811
X40352Y14605
X38100Y19050
X39497Y14605
X37084Y19050
X39497Y8255
X41021Y5080
X37846Y14605
X34798Y19177
X36957Y14605
X42799Y13970
X42291Y16764
X33528Y19177
X29464Y14097
X37719Y8890
X37465Y7620
X44323Y10287
X42164Y8382
X42291Y17780
X42291Y19050
X39878Y6604
X44069Y4572
X44958Y21082
X66040Y21590
X66040Y19050
X55626Y18034
X58166Y18034
X70930Y14986
X73406Y14986
X70866Y7366
X73406Y7366
X55626Y10414
X58166Y10414
X62547Y3556
X62230Y6223
X62865Y10541
X64516Y16510
X69660Y15621
X63119Y15621
X61722Y17526
X66040Y10795
X66675Y8382
X68199Y4445
X56896Y6350
X70231Y1016
X68580Y2096
X73406Y11303
X57150Y4064
X61087Y22225
X57658Y22225
X72263Y20320
X60198Y10795
X66548Y15621
X52705Y20701
X76327Y20701
X76327Y4699
X52705Y4699
X73533Y18415
X56896Y14056
X58166Y11430
X55626Y16764
X55626Y9144
X73406Y8636
X73406Y16256
X64008Y6350
X64516Y3810
X65024Y21590
X65024Y19050
X55626Y12700
X73406Y12700
X71374Y11811
X66260Y14605
X64008Y19050
X65405Y14605
X62992Y19050
X65405Y8255
X66929Y5080
X63754Y14605
X60706Y19177
X62865Y14605
X68707Y13970
X68199Y16764
X59436Y19177
X55372Y14097
X63627Y8890
X63373Y7620
X70231Y10287
X68072Y8382
X68199Y17780
X68199Y19050
X65786Y6604
X69977Y4572
X70866Y21082
X91948Y21590
X91948Y19050
X81534Y18034
X84074Y18034
X96837Y14986
X99314Y14986
X96774Y7366
X99314Y7366
X81534Y10414
X84074Y10414
X88455Y3556
X88138Y6223
X88773Y10541
X90424Y16510
X95567Y15621
X89027Y15621
X87630Y17526
X91948Y10795
X92583Y8382
X94107Y4445
X82804Y6350
X96139Y1016
X94488Y2096
X99314Y11303
X83058Y4064
X86995Y22225
X83566Y22225
X98171Y20320
X86106Y10795
X92456Y15621
X148590Y98806
M30